<svg><symbol id="discussion" preserveAspectRatio="xMinYMin meet"><path d="M21 11.5a8.37 8.37 0 0 1-.9 3.8 8.5 8.5 0 0 1-7.6 4.7 8.37 8.37 0 0 1-3.8-.9L3 21l1.9-5.7a8.37 8.37 0 0 1-.9-3.8 8.5 8.5 0 0 1 4.7-7.6 8.37 8.37 0 0 1 3.8-.9h.5a8.48 8.48 0 0 1 8 8z"></path></symbol><symbol id="yes" preserveAspectRatio="xMinYMin meet"><path d="M22 11.08V12a10 10 0 1 1-5.93-9.14"></path><path d="M22 4L12 14.01l-3-3"></path></symbol><symbol id="user" preserveAspectRatio="xMinYMin meet"><path d="M20 21v-2a4 4 0 0 0-4-4H8a4 4 0 0 0-4 4v2"></path><circle cx="12" cy="7" r="4"></circle></symbol><symbol id="workshop" preserveAspectRatio="xMinYMin meet"><path d="M23,15.5v-6l-11,-5.5l-11,5.5l11,5.5l11,-5.5M5,15c0,2,3,4,7,4s7-2,7-4"></path></symbol><symbol id="home" preserveAspectRatio="xMinYMin meet"><path d="M3 9l9-7 9 7v11a2 2 0 0 1-2 2H5a2 2 0 0 1-2-2z"></path><path d="M9 22V12h6v10"></path></symbol><symbol id="log_out" preserveAspectRatio="xMinYMin meet"><path d="M9 21H5a2 2 0 0 1-2-2V5a2 2 0 0 1 2-2h4M16 17l5-5-5-5M21 12H9"></path></symbol><symbol id="registration_code_of_conduct" preserveAspectRatio="xMinYMin meet"><path d="M12 22s8-4 8-10V5l-8-3-8 3v7c0 6 8 10 8 10z"></path></symbol><symbol id="show" preserveAspectRatio="xMinYMin meet"><path d="M1,19H23V15a3,3,0,0,1,0-6V5H1V9a3,3,0,0,1,0,6ZM15,8.5v0m0,3.5v0m0,3.5v0"></path></symbol><symbol id="social_event" preserveAspectRatio="xMinYMin meet"><path d="M19 10c0 3.87-3.13 9-7 9s-7-5.13-7-9a7 7 0 0 1 14 0zM14 21c0 1.1-4 1.1-4 0a2 2 0 0 1 4 0zM9.17 7.17A4 4 0 0 1 12 6M8 10h0"></path></symbol><symbol id="cart" preserveAspectRatio="xMinYMin meet"><path d="M6 2L3 6v14a2 2 0 0 0 2 2h14a2 2 0 0 0 2-2V6l-3-4zM3 6h18M16 10a4 4 0 0 1-8 0"></path></symbol><symbol id="no" preserveAspectRatio="xMinYMin meet"><circle cx="12" cy="12" r="10"></circle><path d="M4.93 4.93l14.14 14.14"></path></symbol><symbol id="unsorted" preserveAspectRatio="xMinYMin meet"><circle cx="12" cy="12" r="10"></circle></symbol><symbol id="chevron_right" preserveAspectRatio="xMinYMin meet"><path d="M9 18l6-6-6-6"></path></symbol><symbol id="venue" preserveAspectRatio="xMinYMin meet"><path d="M21 10c0 7-9 13-9 13s-9-6-9-13a9 9 0 0 1 18 0z"></path><circle cx="12" cy="10" r="3"></circle></symbol><symbol id="check" preserveAspectRatio="xMinYMin meet"><path d="M20 6L9 17l-5-5" pathLength="100"></path></symbol><symbol id="add" preserveAspectRatio="xMinYMin meet"><path d="M12 5v14M5 12h14"></path></symbol><symbol id="bullet" preserveAspectRatio="xMinYMin meet"><circle cx="12" cy="12" r="10"></circle><path d="M12 16l4-4-4-4M8 12h8"></path></symbol><symbol id="close" preserveAspectRatio="xMinYMin meet"><path d="M18 6L6 18M6 6l12 12"></path></symbol><symbol id="people" preserveAspectRatio="xMinYMin meet"><path d="M17 21v-2a4 4 0 0 0-4-4H5a4 4 0 0 0-4 4v2"></path><circle cx="9" cy="7" r="4"></circle><path d="M23 21v-2a4 4 0 0 0-3-3.87M16 3.13a4 4 0 0 1 0 7.75"></path></symbol><symbol viewBox="0 0 24 24" id="marker" preserveAspectRatio="xMinYMin meet"><linearGradient gradientUnits="userSpaceOnUse" x1="12" y1="1" x2="12" y2="23"><stop offset="0" stop-color="#f7941d"></stop><stop offset="1" stop-color="#ef4136"></stop></linearGradient><path d="M12 1c-5 0-9 4-9 9 0 7 9 13 9 13s9-6 9-13c0-5-4-9-9-9z" fill="url(#a)"></path><g><path d="M12 1c-5 0-9 4-9 9 0 7 9 13 9 13s9-6 9-13c0-5-4-9-9-9z" fill="none" stroke="#ef4136" stroke-linecap="round" stroke-linejoin="round"></path></g></symbol><symbol id="pitch" preserveAspectRatio="xMinYMin meet"><path d="M17 12c0-2.8-2.2-5-5-5s-5 2.2-5 5c0 2 1.2 3.8 3 4.6V20c0 1.1.9 2 2 2s2-.9 2-2v-3.4c1.8-.8 3-2.6 3-4.6zM12 1v2M4.2 4.2l1.4 1.4M18.4 18.4l1.4 1.4M1 12h2M21 12h2M4.2 19.8l1.4-1.4M18.4 5.6l1.4-1.4M14 18.4"></path></symbol><symbol id="back" preserveAspectRatio="xMinYMin meet"><path d="M19 12H5M12 19l-7-7 7-7"></path></symbol><symbol id="send" preserveAspectRatio="xMinYMin meet"><path d="M22 2L11 13M22 2l-7 20-4-9-9-4 20-7z"></path></symbol><symbol id="facebook" preserveAspectRatio="xMinYMin meet"><path d="M18 2h-3a5 5 0 0 0-5 5v3H7v4h3v8h4v-8h3l1-4h-4V7a1 1 0 0 1 1-1h3z"></path></symbol><symbol id="admin" preserveAspectRatio="xMinYMin meet"><circle cx="12" cy="12" r="3"></circle><path d="M19.4 15a1.65 1.65 0 0 0 .33 1.82l.06.06a2 2 0 0 1 0 2.83 2 2 0 0 1-2.83 0l-.06-.06a1.65 1.65 0 0 0-1.82-.33 1.65 1.65 0 0 0-1 1.51V21a2 2 0 0 1-2 2 2 2 0 0 1-2-2v-.09A1.65 1.65 0 0 0 9 19.4a1.65 1.65 0 0 0-1.82.33l-.06.06a2 2 0 0 1-2.83 0 2 2 0 0 1 0-2.83l.06-.06a1.65 1.65 0 0 0 .33-1.82 1.65 1.65 0 0 0-1.51-1H3a2 2 0 0 1-2-2 2 2 0 0 1 2-2h.09A1.65 1.65 0 0 0 4.6 9a1.65 1.65 0 0 0-.33-1.82l-.06-.06a2 2 0 0 1 0-2.83 2 2 0 0 1 2.83 0l.06.06a1.65 1.65 0 0 0 1.82.33H9a1.65 1.65 0 0 0 1-1.51V3a2 2 0 0 1 2-2 2 2 0 0 1 2 2v.09a1.65 1.65 0 0 0 1 1.51 1.65 1.65 0 0 0 1.82-.33l.06-.06a2 2 0 0 1 2.83 0 2 2 0 0 1 0 2.83l-.06.06a1.65 1.65 0 0 0-.33 1.82V9a1.65 1.65 0 0 0 1.51 1H21a2 2 0 0 1 2 2 2 2 0 0 1-2 2h-.09a1.65 1.65 0 0 0-1.51 1z"></path></symbol><symbol id="google" preserveAspectRatio="xMinYMin meet"><path d="M21.8 10H12v4h5.7c-.8 2.3-3 4-5.7 4-3.3 0-6-2.7-6-6s2.7-6 6-6c1.7 0 3.2.7 4.2 1.8L19 5c-1.7-1.9-4.2-3-7-3C6.5 2 2 6.5 2 12s4.5 10 10 10 10-4.5 10-10c0-.7-.1-1.4-.2-2z"></path></symbol><symbol id="maybe" preserveAspectRatio="xMinYMin meet"><circle cx="12" cy="12" r="10"></circle><path d="M9.09 9a3 3 0 0 1 5.83 1c0 2-3 3-3 3M12 17v0"></path></symbol><symbol id="edit" preserveAspectRatio="xMinYMin meet"><path d="M14 2l4 4L7 17H3v-4L14 2zM3 22h18"></path></symbol><symbol id="next" preserveAspectRatio="xMinYMin meet"><path d="M5 12h14M12 5l7 7-7 7"></path></symbol><symbol viewBox="0 0 32 32" id="checkbox" preserveAspectRatio="xMinYMin meet"><circle cx="16" cy="16" r="15"></circle><path class="checkmark" d="M24 10L13 21l-5-5" pathLength="100"></path></symbol><symbol id="chevron_down" preserveAspectRatio="xMinYMin meet"><path d="M6 9l6 6 6-6"></path></symbol><symbol id="delete" preserveAspectRatio="xMinYMin meet"><path d="M3 6h18M19 6v14a2 2 0 0 1-2 2H7a2 2 0 0 1-2-2V6m3 0V4a2 2 0 0 1 2-2h4a2 2 0 0 1 2 2v2"></path></symbol><symbol id="schedule" preserveAspectRatio="xMinYMin meet"><rect x="3" y="4" width="18" height="18" rx="2" ry="2"></rect><path d="M16 2v4M8 2v4M3 10h18"></path></symbol><symbol id="bullet-level-2" preserveAspectRatio="xMinYMin meet"><path d="M12 16l4-4-4-4M8 12h8"></path></symbol><symbol id="activity" preserveAspectRatio="xMinYMin meet"><path d="M1 6v16l7-4 8 4 7-4V2l-7 4-8-4-7 4zM8 2v16M16 6v16"></path></symbol><symbol id="twitter" preserveAspectRatio="xMinYMin meet"><path d="M23 3a10.9 10.9 0 0 1-3.14 1.53 4.48 4.48 0 0 0-7.86 3v1A10.66 10.66 0 0 1 3 4s-4 9 5 13a11.64 11.64 0 0 1-7 2c9 5 20 0 20-11.5a4.5 4.5 0 0 0-.08-.83A7.72 7.72 0 0 0 23 3z"></path></symbol><symbol id="registration_details" preserveAspectRatio="xMinYMin meet"><path d="M20 21v-2a4 4 0 0 0-4-4H8a4 4 0 0 0-4 4v2"></path><circle cx="12" cy="7" r="4"></circle></symbol><symbol id="upload" preserveAspectRatio="xMinYMin meet"><path d="M16 16l-4-4-4 4M12 12v9"></path><path d="M20.39 18.39A5 5 0 0 0 18 9h-1.26A8 8 0 1 0 3 16.3"></path><path d="M16 16l-4-4-4 4"></path></symbol><symbol id="done" preserveAspectRatio="xMinYMin meet"><path d="M20 6L9 17l-5-5" pathLength="100"></path></symbol><symbol id="menu" preserveAspectRatio="xMinYMin meet"><path d="M3 6h18"></path><path d="M3 12h18"></path><path d="M3 18h18"></path></symbol><symbol id="password" preserveAspectRatio="xMinYMin meet"><rect x="3" y="11" width="18" height="11" rx="2" ry="2"></rect><path d="M7 11V7a5 5 0 0 1 10 0v4"></path></symbol></svg>