<svg id="Layer_1" xmlns="http://www.w3.org/2000/svg" viewBox="0 0 1280 264"><style>.st0{opacity:.7}.st1{fill:#fff}</style><g class="st0"><path class="st1" d="M48.7 60.9L17.2 30.7l-3.7-3.3V60h-12V1.7H2l31.4 30.2 3.7 3.3V2.6h12.1v58.3h-.5zM64.7 60V2.6h36.9v10.3H77V26h20.9v9.9H77v13.9h25.8V60H64.7zM122.1 2.6l7.8 19.5c1.9 4.8 3.6 9.3 4.8 13 .9-2.1 2.6-6.5 4.1-10l3.2-7.3L148.7 3h.5c4.9 10.9 10.9 24 13.9 32.1 2.1-5.1 9.3-23.7 12.7-32.5h13.7l-25.7 58.3h-.6L152 35.2c-1-2.2-2.1-4.6-2.9-6.9-.9 2.2-1.9 4.6-2.9 6.9l-11.3 25.7h-.6L108.5 2.6h13.6zM239.5 12.9h-25.3V2.6h43.9l-27.7 47.1h26.9V60h-45.5l27.7-47.1zM269.7 60V2.6h36.9v10.3H282V26h20.9v9.9H282v13.9h25.8V60h-38.1zM341 1.7h.5L369.3 60h-12.8l-4.6-10.1h-21.4L326 60h-12.8L341 1.7zm7.2 39.6c-2.6-6-5.2-12-6.9-17.1-1.7 4-4.7 11.6-7.1 17.1h14zM376.8 60V2.6H389v47.1h22.1V60h-34.3zM443.1 1.7h.5L471.5 60h-12.8l-4.6-10.1h-21.4L428.2 60h-12.8l27.7-58.3zm7.3 39.6c-2.6-6-5.2-12-6.9-17.1-1.7 4-4.7 11.6-7.1 17.1h14zM527.8 60.9l-31.5-30.2-3.7-3.3V60h-12V1.7h.5l31.4 30.2 3.7 3.3V2.6h12.1v58.3h-.5zM543.8 60V2.6h18.3c19.5 0 31.9 11.9 31.9 28.7S581.7 60 562.3 60h-18.5zm12.3-47.1v36.8h6.1c12.3 0 19.5-8 19.5-18.4 0-10.4-7.3-18.4-19.7-18.4h-5.9z"/></g><g opacity=".4"><path class="st1" d="M657.8 4.7c2.6-1.6 7.3-3.2 12.9-3.2 13.1 0 21.2 8.2 21.2 19.9 0 10.5-7.6 19-15.4 28.2h17.9V60h-39.8c12.4-14.5 22.2-25.2 24.1-34.8.5-2.2.5-4.2.1-6-.9-4-4.4-6.5-9.6-6.5-4.8 0-9.1 1.8-11.4 3.3V4.7zM726.3 1.5c14.3 0 23.3 13.1 23.3 29.8s-9 29.8-23.3 29.8S703 48 703 31.3s9-29.8 23.3-29.8zm0 48.4c6.9 0 10.9-7.6 10.9-18.6 0-11-4-18.6-10.9-18.6s-11 7.6-11 18.6c0 11 4.1 18.6 11 18.6zM758.9 32.8h40.6v9.3h-40.6v-9.3zM808.7 4.7c2.6-1.6 7.3-3.2 12.9-3.2 13.1 0 21.2 8.2 21.2 19.9 0 10.5-7.7 19-15.4 28.2h17.9V60h-39.8c12.4-14.5 22.2-25.2 24.1-34.8.5-2.2.5-4.2.1-6-.9-4-4.4-6.5-9.6-6.5-4.8 0-9.1 1.8-11.4 3.3V4.7zM855.2 60l20.1-47H852V2.6h39.6L867.8 60h-12.6zM944.4 1.5c17.3 0 30 13.2 30 29.8 0 16.7-12.7 29.8-30 29.8s-30-13.1-30-29.8c0-16.5 12.7-29.8 30-29.8zm0 48.4c10.4 0 17.7-8.3 17.7-18.6 0-10.2-7.3-18.6-17.7-18.6-10.4 0-17.7 8.4-17.7 18.6 0 10.3 7.4 18.6 17.7 18.6zM1032 16.7c-3.4-1.8-8.8-4-15.9-4-11.6 0-19 8.4-19 18.6 0 10.3 7.3 18.6 18.6 18.6 7.4 0 13.1-2.2 16.7-4v11.4c-2.9 1.6-9.5 3.8-17.5 3.8-17.3 0-30-13-30-29.8 0-16.7 12.7-29.8 30.4-29.8 8 0 13.8 2.4 16.7 4v11.2zM1067.1 12.9V60h-12.3V12.9h-16V2.6h44.4v10.3h-16.1zM1107.3 4.7c2.6-1.6 7.3-3.2 12.9-3.2 13.1 0 21.2 8.2 21.2 19.9 0 10.5-7.7 19-15.4 28.2h17.9V60h-39.8c12.4-14.5 22.2-25.2 24.1-34.8.5-2.2.5-4.2.1-6-.9-4-4.4-6.5-9.6-6.5-4.8 0-9.1 1.8-11.4 3.3V4.7zM1175.9 1.5c14.3 0 23.3 13.1 23.3 29.8s-9 29.8-23.3 29.8-23.3-13.1-23.3-29.8 8.9-29.8 23.3-29.8zm0 48.4c6.9 0 10.9-7.6 10.9-18.6 0-11-4-18.6-10.9-18.6s-11 7.6-11 18.6c0 11 4 18.6 11 18.6zM1226.8 2.6V60h-12.3V13h-7.5V2.6h19.8zM1240.2 16.7c0-8.7 8-15.2 19-15.2s19.1 6.5 19.1 15.2c0 8-6.9 12.9-9.6 14 3 1.4 10.4 6.3 10.4 14.7 0 8.9-8.2 15.6-19.9 15.6-10.4 0-18.1-5.4-19.4-12.9-.3-1.8-.3-3.6 0-5.4 1-6.9 7.5-10.9 9.9-12-2.6-1.1-9.5-6-9.5-14zm19.1 34.2c4.6 0 8.2-3 8.2-6.9 0-4.6-4.7-7.9-8.2-9.2-3.5 1.4-8.2 4.6-8.2 9.2 0 3.9 3.6 6.9 8.2 6.9zm0-24.4c3-1.4 7.3-4.1 7.3-8.5 0-3.6-3.2-6.5-7.3-6.5s-7.3 2.9-7.3 6.5c0 4.4 4.2 7.2 7.3 8.5z"/></g><g class="st0"><path class="st1" d="M471.3 213.8h.4l22.9 47.8H484l-3.8-8.3h-17.6l-3.7 8.3h-10.5l22.9-47.8zm5.9 32.4c-2.2-4.9-4.2-9.9-5.7-14-1.4 3.3-3.9 9.5-5.8 14h11.5zM526.1 223v11.2h15.7v8.3h-15.7v19.1H516v-47h28.7v8.4h-18.6zM554.2 261.6v-47h30.2v8.4h-20.2v10.7h17.1v8.1h-17.1v11.4h21.2v8.4h-31.2zM593.1 259.8v-9.7c3.3 1.7 7.6 3.1 11.8 3.4 1.5.1 2.9 0 4.2-.3 3.6-.5 5.7-1.9 5.7-4.2 0-3.1-2.8-4.8-9.3-7.1-8.2-3-13.1-6.5-13.1-14.6 0-8.4 6.9-13.7 17-13.7 4.7 0 9.3 1 12.3 2.4v9.3c-2.7-1.6-7.2-2.9-11.5-2.9-4.8 0-8 1.9-8 4.9 0 2.7 2.5 4.6 8.9 7.1 8.2 3.2 13.3 6.7 13.3 14.6 0 8.5-6.4 13.6-17.5 13.6-5.2-.1-10.4-1.3-13.8-2.8zM652.8 223v38.6h-10.1V223h-13.1v-8.4H666v8.4h-13.2zM674.3 261.6v-47h10.1v47h-10.1zM714.8 262.3h-.4l-23.2-47.8h11l6.1 13.6c2.4 5.4 4.6 10.1 6.2 14.6 1.4-3.3 4.2-10 6.3-14.6l6.1-13.6H738l-23.2 47.8zM755.1 213.8h.4l22.9 47.8h-10.5l-3.8-8.3h-17.6l-3.7 8.3h-10.5l22.8-47.8zm5.9 32.4c-2.2-4.9-4.2-9.9-5.7-14-1.4 3.3-3.9 9.5-5.8 14H761zM785.7 261.6v-47h10.1v38.6h18.1v8.4h-28.2zM858.5 213.6c14.2 0 24.6 10.8 24.6 24.4 0 13.7-10.4 24.4-24.6 24.4-14.2 0-24.6-10.7-24.6-24.4 0-13.5 10.4-24.4 24.6-24.4zm0 39.7c8.5 0 14.5-6.8 14.5-15.2 0-8.4-6-15.2-14.5-15.2s-14.5 6.9-14.5 15.2c0 8.4 6.1 15.2 14.5 15.2zM903.1 223v11.2h15.7v8.3h-15.7v19.1H893v-47h28.7v8.4h-18.6zM957.4 237.3l-2.5-2.2v26.5h-9.6v-47.8h.2l22.4 22.6 22.4-22.6h.2v47.8H981v-26.5l-2.5 2.2c-3.5 3.8-7 7.6-10.5 11.3-3.6-3.7-7-7.5-10.6-11.3zM1025 213.6c14.2 0 24.6 10.8 24.6 24.4 0 13.7-10.4 24.4-24.6 24.4-14.2 0-24.6-10.7-24.6-24.4 0-13.5 10.3-24.4 24.6-24.4zm0 39.7c8.5 0 14.5-6.8 14.5-15.2 0-8.4-6-15.2-14.5-15.2s-14.5 6.9-14.5 15.2c0 8.4 6 15.2 14.5 15.2zM1071.6 237.3l-2.5-2.2v26.5h-9.6v-47.8h.2l22.4 22.6 22.4-22.6h.2v47.8h-9.6v-26.5l-2.5 2.2c-3.5 3.8-7 7.6-10.5 11.3-3.5-3.7-7-7.5-10.5-11.3zM1117.5 261.6v-47h30.2v8.4h-20.2v10.7h17.1v8.1h-17.1v11.4h21.2v8.4h-31.2zM1197.2 262.3l-25.8-24.8-3.1-2.7v26.7h-9.9v-47.8h.4l25.7 24.8 3 2.7v-26.7h9.9v47.8h-.2zM1229.1 223v38.6H1219V223h-13.1v-8.4h36.4v8.4h-13.2zM1248.5 259.8v-9.7c3.3 1.7 7.6 3.1 11.8 3.4 1.5.1 2.9 0 4.2-.3 3.6-.5 5.7-1.9 5.7-4.2 0-3.1-2.8-4.8-9.3-7.1-8.2-3-13.1-6.5-13.1-14.6 0-8.4 6.9-13.7 17-13.7 4.7 0 9.3 1 12.3 2.4v9.3c-2.7-1.6-7.2-2.9-11.5-2.9-4.8 0-8 1.9-8 4.9 0 2.7 2.5 4.6 8.9 7.1 8.2 3.2 13.3 6.7 13.3 14.6 0 8.5-6.4 13.6-17.5 13.6-5.2-.1-10.4-1.3-13.8-2.8z"/></g><path class="st1" d="M29.4 191H0V89.6h29.4V191zM80.5 144.3V191h-28V88.2h.7l50.5 41.7 50.4-41.7h.8V191h-28.2v-46.7L103.8 163l-23.3-18.7zM255.8 125.2c0 24.2-18 35.6-43.2 35.6h-5.2V191H178V89.6h34.6c25.2 0 43.2 11.6 43.2 35.6zm-48.4-10.8v21.7h6.8c6.3 0 12-2.7 12-10.8 0-8-5.6-10.8-12-10.8h-6.8zM351.6 125.2c0 12.5-5.5 23.1-16.9 28.9 20.3 47.3 53.1 60.3 84.6 60.3 10 0 19.4-1.3 25.2-3.2L430.6 240s-8.6.8-12.8.8c-45.1 0-85.5-20.7-108.6-81.4h-9.7V191h-28.7V89.6h37.5c25.4 0 43.3 11.7 43.3 35.6zm-52-10.8v21.7h11c6.3 0 11.3-2.5 11.3-10.8 0-8-4.9-10.8-11.3-10.8h-11z"/><path class="st1" d="M419 87.5c32 0 54.2 23.8 54.2 52.8 0 29.4-22.2 52.8-54.2 52.8-31.8 0-54.1-23.4-54.1-52.8 0-29 22.3-52.8 54.1-52.8zm0 78.7c14.9 0 24.5-12.3 24.5-25.9 0-13.4-9.6-25.9-24.5-25.9-14.8 0-24.5 12.5-24.5 25.9 0 13.7 9.7 25.9 24.5 25.9zM550.9 89.6h32.4l-52.9 102.8H529L475.9 89.6h32.5l12.5 26.9c3.5 7.5 7.2 15.8 8.6 21h.3c1.4-5.2 5.1-13.5 8.6-21l12.5-26.9zM624.4 89.6h64.3v24.8h-34.9v15.1h29.4v24.1h-29.4V191h-29.4V89.6zM705.9 89.6h67.9v24.8h-38.4v13.5h32.9v23.2h-32.9v15.1H776V191h-70V89.6zM863.3 162.3c0 19.3-14.4 30.8-40.8 30.8-11.4 0-23.1-2.1-31-5.5v-28.2c9.4 5.2 20.7 8 29.4 8 8.9 0 13.7-1.5 13.7-5.2 0-4.2-6.6-6.2-17.5-10.4-16.3-6.3-27.9-13.1-27.9-32.5 0-19 15.6-31.8 39.7-31.8 10.1 0 20.6 1.8 27.6 4.8v27c-6.2-4.1-15.6-6.5-25.1-6.5-8.3 0-13.4 2.4-13.4 6.5 0 3.7 6.2 6.2 16.5 10.4 16.4 6.8 28.8 13.7 28.8 32.6zM952.5 89.6v24.8h-25.9V191H897v-76.6h-25.9V89.6h81.4zM997.6 191h-29.4V89.6h29.4V191zM1084.1 89.6h32.4l-52.9 102.8h-1.4l-53.1-102.8h32.5l12.5 26.9c3.5 7.5 7.2 15.8 8.6 21h.3c1.4-5.2 5.1-13.5 8.6-21l12.5-26.9zM1165.8 177.6H1135l-6.2 13.4h-30.6l51.5-102.8h1.4l51.5 102.8H1172l-6.2-13.4zm-22.7-19.1h14.6c-2.5-5.9-6.3-15.2-7.2-18.9h-.3c-.8 3.7-4.6 13-7.1 18.9zM1215.6 191V89.6h29.4v76.6h34.6V191h-64z"/></svg>