<svg xmlns="http://www.w3.org/2000/svg" width="24" height="24" fill="none" stroke="currentColor" stroke-width="2" stroke-linecap="round" stroke-linejoin="round" class="feather feather-clipboard"><path d="M7 22H6a2 2 0 0 1-2-2V6a2 2 0 0 1 2-2h2M16 4h2a2 2 0 0 1 2 2v1M14.67 16.67a3.33 3.33 0 0 0 4.66.67 3.65 3.65 0 0 0 .36-.31l2-2A3.33 3.33 0 0 0 17 10.31l-1.15 1.14M17.33 15.33a3.33 3.33 0 0 0-4.66-.67 3.65 3.65 0 0 0-.36.31l-2 2A3.33 3.33 0 0 0 15 21.69l1.14-1.14"/><rect x="8" y="2" width="8" height="4" rx="1" ry="1"/></svg>
